<svg xmlns="http://www.w3.org/2000/svg" width="192" height="192" viewBox="0 0 192 192">
<defs><radialGradient id="halo"><stop stop-color="#d6b458" stop-opacity=".42"/><stop offset="1" stop-color="#101317" stop-opacity="0"/></radialGradient><linearGradient id="coat" x2="0" y2="1"><stop stop-color="#5a294d"/><stop offset="1" stop-color="#2d1730"/></linearGradient></defs>
<circle cx="96" cy="91" r="83" fill="url(#halo)"/>
<path d="M31 188q8-65 65-67 57 2 65 67z" fill="url(#coat)" stroke="#17191c" stroke-width="6"/><path d="M61 138q35 27 70 0l-8 38H69z" fill="#d6b458" opacity=".78"/><path d="M55 73q2-49 41-53 42 4 43 53l-14 38-29 17-29-17z" fill="#b98570" stroke="#201a1b" stroke-width="5"/><path d="M52 74Q49 18 95 11q49 3 48 59l-25-20-22 13-25-14z" fill="#352229" stroke="#2a2020" stroke-width="4"/><path d="m70 80 16 3m20 0 16-3" stroke="#252124" stroke-width="4"/><circle cx="81" cy="85" r="3" fill="#17191b"/><circle cx="112" cy="85" r="3" fill="#17191b"/><path d="m91 101 10-2m-18 15q14 8 28 0" fill="none" stroke="#6d4b45" stroke-width="3"/>
<path d="M40 181h112" stroke="#72b8ae" stroke-width="7"/><circle cx="96" cy="181" r="10" fill="#72b8ae"/>
<g><circle cx="70" cy="49" r="7" fill="none" stroke="#d8ba63" stroke-width="3"/><path d="M75 54l7 8" stroke="#7b5838" stroke-width="3"/><path d="M25 50l-6 16 10 4 7-15" fill="#6b3157" stroke="#241522" stroke-width="2"/></g>
</svg>
