<svg xmlns="http://www.w3.org/2000/svg" width="96" height="96" viewBox="0 0 96 96">
<defs><linearGradient id="cloth" x2="0" y2="1"><stop stop-color="#5a294d"/><stop offset="1" stop-color="#2d1730"/></linearGradient><filter id="hurtGlow" x="-40%" y="-40%" width="180%" height="180%"><feGaussianBlur stdDeviation="1.4"/></filter></defs>
<g transform="translate(0 1)" stroke-linejoin="round" stroke-linecap="round">
<ellipse cx="48" cy="90" rx="25" ry="4" fill="#090b0d" opacity=".42"/>
<path d="M45 70l-3 18-8 5h17l3-22M42 70l3 18 8 5H51l-2-22" fill="#2d1730" stroke="#151619" stroke-width="2.5"/>
<path d="M30 38q18-12 36 0l8 36-16 10-12-7-12 7-16-10z" fill="url(#cloth)" stroke="#17191c" stroke-width="3"/>
<path d="M31 44L22 61l8 9 12-18M65 44l8 17 -8 9-13-18" fill="#5a294d" stroke="#17191c" stroke-width="3"/>
<path d="M34 43q14 10 29 0l-4 18-10 6-11-6z" fill="#d6b458" opacity=".8"/><path d="M32 69h34" stroke="#72b8ae" stroke-width="4"/><circle cx="49" cy="69" r="4" fill="#72b8ae"/>
<path d="M41 24q3-14 16-14 10 5 8 18l-8 9-13-4z" fill="#b98570" stroke="#181519" stroke-width="2"/><path d="M43 20q3-14 16-13 10 5 7 17l-9-6-13 8z" fill="#352229"/><circle cx="60" cy="25" r="1.5" fill="#17191b"/><path d="M31 25q2-21 18-22 17 3 18 22l-10-7-8 3-10-3z" fill="#3b2532" stroke="#21151d" stroke-width="2.5"/><circle cx="58" cy="7" r="4" fill="#d6b458"/>
<path d="M22 61l8 9 4-6-7-9zM74 61l-8 9-4-6 7-9z" fill="#b98570" stroke="#181519" stroke-width="2"/>
<g><circle cx="67" cy="49" r="7" fill="none" stroke="#d8ba63" stroke-width="3"/><path d="M72 54l7 8" stroke="#7b5838" stroke-width="3"/><path d="M25 50l-6 16 10 4 7-15" fill="#6b3157" stroke="#241522" stroke-width="2"/></g>

</g></svg>
