<svg xmlns="http://www.w3.org/2000/svg" width="96" height="96" viewBox="0 0 96 96"><defs><linearGradient id="cloth" x2="0" y2="1"><stop stop-color="#5f315b"/><stop offset="1" stop-color="#24706c"/></linearGradient></defs><g stroke-linecap="round" stroke-linejoin="round"><ellipse cx="48" cy="91" rx="23" ry="3.5" fill="#080a0d" opacity=".48"/><g transform="translate(0 0) rotate(0 48 72)"><path d="M40.5 75l-4 17h11l2-17M55.5 75l4 17h-11l-2-17" fill="#312a3b" stroke="#1b1b20" stroke-width="2.5"/><path d="M33 35Q48 28 63 35L68 76Q48 83 28 76Z" fill="#5f315b" stroke="#211920" stroke-width="2.5"/><path d="M36 44Q48 53 60 44L63 71Q48 76 33 71Z" fill="#24706c" opacity=".72"/><path d="M31 59H65" stroke="#d9b868" stroke-width="4"/><path d="M41 47q7 8 14 0" fill="none" stroke="#ead7aa" stroke-width="2"/><path d="M35 43  25 67" stroke="#5f315b" stroke-width="10"/><circle cx="25" cy="68" r="5" fill="#b98268"/><path d="M61 43 72 67" stroke="#5f315b" stroke-width="10"/><circle cx="72" cy="68" r="5" fill="#b98268"/><path d="M36 15q12-11 25 0l-1 15-11 8-12-7Z" fill="#b98268" stroke="#241b1b" stroke-width="2"/><path d="M34 24q1-15 14-18 16 2 16 18l-7-5-10 3-13-1Z" fill="#68425f" stroke="#211820" stroke-width="2.5"/><path d="M35 15q14 8 28 0" fill="none" stroke="#d9b868" stroke-width="4"/><path d="m41 23 4 1m8 0 4-1" stroke="#242025" stroke-width="1.5"/><path d="m47 30 5 0" stroke="#724b45" stroke-width="1.2"/><g id="profession-tool" transform="translate(72 56) rotate(12)"><path d="M0-13V15" stroke="#b98b54" stroke-width="3"/><path d="M-7-5Q0-12 7-5L5 6Q0 12-5 6Z" fill="#d9b868" stroke="#211a22" stroke-width="2"/><path d="M-5 12h10" stroke="#ead9a4" stroke-width="2"/></g></g></g></svg>