<svg xmlns="http://www.w3.org/2000/svg" width="96" height="96" viewBox="0 0 96 96"><defs><linearGradient id="cloth" x2="0" y2="1"><stop stop-color="#713846"/><stop offset="1" stop-color="#d7c29b"/></linearGradient></defs><g stroke-linecap="round" stroke-linejoin="round"><ellipse cx="48" cy="91" rx="23" ry="3.5" fill="#080a0d" opacity=".48"/><g transform="translate(0 -3) rotate(0 48 72)"><path d="M40 75l-7 17h11l2-17M56 75l8 17h-11l-2-17" fill="#3a2c31" stroke="#1b1b20" stroke-width="2.5"/><path d="M32 35Q48 28 64 35L69 76Q48 83 27 76Z" fill="#713846" stroke="#211920" stroke-width="2.5"/><path d="M35 44Q48 53 61 44L64 71Q48 76 32 71Z" fill="#d7c29b" opacity=".72"/><path d="M30 59H66" stroke="#d59b4d" stroke-width="4"/><path d="M38 41h20v31H38Z" fill="#e1d3b4" opacity=".84"/><path d="M34 43  25 67" stroke="#713846" stroke-width="10"/><circle cx="25" cy="68" r="5" fill="#b97d64"/><path d="M62 43 72 67" stroke="#713846" stroke-width="10"/><circle cx="72" cy="68" r="5" fill="#b97d64"/><path d="M36 15q12-11 25 0l-1 15-11 8-12-7Z" fill="#b97d64" stroke="#241b1b" stroke-width="2"/><path d="M31 21Q36 4 50 6q15 1 18 16l-9-3-10 3-14-3Z" fill="#d6c5a3" stroke="#392821" stroke-width="2.5"/><path d="m63 18 11 19-13-5" fill="#b89876" stroke="#392821" stroke-width="2"/><path d="m41 23 4 1m8 0 4-1" stroke="#242025" stroke-width="1.5"/><path d="m47 30 5 0" stroke="#724b45" stroke-width="1.2"/><g id="profession-tool" transform="translate(68 56)"><path d="M-8-9H7L5 9H-6Z" fill="#b07a46" stroke="#2b211e" stroke-width="2"/><path d="M7-5q10-1 8 8-2 5-9 2" fill="none" stroke="#b07a46" stroke-width="3"/><path d="M-5-6H4" stroke="#f0d58d" stroke-width="2"/></g></g></g></svg>