<svg xmlns="http://www.w3.org/2000/svg" width="320" height="256" viewBox="0 0 320 256"><defs><linearGradient id="wall" x2="0" y2="1"><stop stop-color="#75543f"/><stop offset="1" stop-color="#332d2a"/></linearGradient><linearGradient id="roof" x2="0" y2="1"><stop stop-color="#342c36"/><stop offset="1" stop-color="#17171c"/></linearGradient><linearGradient id="door" x2="0" y2="1"><stop stop-color="#2a2022"/><stop offset="1" stop-color="#121214"/></linearGradient><filter id="shadow" x="-30%" y="-30%" width="160%" height="160%"><feGaussianBlur stdDeviation="4"/></filter></defs><g stroke-linecap="round" stroke-linejoin="round"><ellipse cx="160" cy="232" rx="142" ry="16" fill="#0c0c10" opacity=".42" filter="url(#shadow)"/><path d="M25 103 160 52l135 51v112l-135 22-135-22Z" fill="url(#wall)" stroke="#1c191b" stroke-width="6"/><path d="M12 102 157 34l294 68-27 31-110-42-111 42Z" fill="url(#roof)" stroke="#17161a" stroke-width="7"/><path d="M44 113 160 69l116 44" fill="none" stroke="#c28a4e" stroke-width="5" opacity=".75"/><g transform="translate(56 132)"><path d="M-16-20h32v37h-32Z" fill="#d9a95d" opacity=".58" stroke="#211c1d" stroke-width="4"/><path d="M0-19v35M-15-2h30" stroke="#c28a4e" stroke-width="2"/></g><g transform="translate(108 139)"><path d="M-16-20h32v37h-32Z" fill="#d9a95d" opacity=".58" stroke="#211c1d" stroke-width="4"/><path d="M0-19v35M-15-2h30" stroke="#c28a4e" stroke-width="2"/></g><g transform="translate(212 132)"><path d="M-16-20h32v37h-32Z" fill="#d9a95d" opacity=".58" stroke="#211c1d" stroke-width="4"/><path d="M0-19v35M-15-2h30" stroke="#c28a4e" stroke-width="2"/></g><g transform="translate(264 139)"><path d="M-16-20h32v37h-32Z" fill="#d9a95d" opacity=".58" stroke="#211c1d" stroke-width="4"/><path d="M0-19v35M-15-2h30" stroke="#c28a4e" stroke-width="2"/></g><g id="door-anchor" data-anchor-x="160" data-anchor-y="229"><path d="M134 167q0-29 26-31 27 2 27 31v62h-53Z" fill="url(#door)" stroke="#c28a4e" stroke-width="6"/><circle cx="176" cy="184" r="3.5" fill="#d5b36d"/><path d="m122 229 38-12 40 12-12 12h-56Z" fill="#817161" stroke="#2a2524" stroke-width="4"/></g><g id="trade-details"><path d="M160 58v-28" stroke="#6f5033" stroke-width="5"/><path d="M160 31h42l-7 31h-35Z" fill="#a76d3d" stroke="#241b1b" stroke-width="4"/><path d="M171 39h12v15h-12Z" fill="#e8c87d"/><g fill="#d49b52"><circle cx="51" cy="182" r="6"/><circle cx="270" cy="182" r="6"/></g></g></g></svg>