<svg xmlns="http://www.w3.org/2000/svg" width="192" height="192" viewBox="0 0 192 192"><defs><linearGradient id="cloth" x1="0" y1="0" x2="1" y2="1"><stop stop-color="#8f3f32"/><stop offset="1" stop-color="#3d2525"/></linearGradient><linearGradient id="skin" x1="0" y1="0" x2="0" y2="1"><stop stop-color="#9a6a52"/><stop offset="1" stop-color="#6d493d"/></linearGradient><filter id="glow" x="-100%" y="-100%" width="300%" height="300%"><feGaussianBlur stdDeviation="1.5" result="b"/><feMerge><feMergeNode in="b"/><feMergeNode in="SourceGraphic"/></feMerge></filter></defs><g transform="translate(0 3) scale(2)"><path d="M24 91Q25 57 37 44Q48 37 59 44Q72 57 73 91Z" fill="url(#cloth)" stroke="#111318" stroke-width="2.8"/><path d="M34 43h28l-4 34H38Z" fill="#6c3c2f" stroke="#241817" stroke-width="2"/><path d="M43 43v35M55 43v35" stroke="#d39a60" stroke-width="2"/><circle cx="48" cy="58" r="3" fill="#e09a45"/><path d="M36 17Q49 7 61 18L59 32Q54 39 48 39Q41 38 37 31Z" fill="url(#skin)" stroke="#171416" stroke-width="2.4"/><path d="m41 26 4 1m7 0 4-1" stroke="#241b1a" stroke-width="1.5"/><path d="m46 33 5-1" stroke="#70483f" stroke-width="1.2"/><path d="M37 25Q48 18 59 25L57 30Q48 26 39 30Z" fill="#8f3f32" stroke="#141014" stroke-width="2"/><path d="M58 26l8 3-7 4z" fill="#8f3f32"/><g transform="rotate(8 70 54)"><path d="M68 42v36" stroke="#6e4930" stroke-width="4"/><path d="M59 38h20v9H59Z" fill="#9aa0a0" stroke="#272729" stroke-width="2"/></g></g></svg>