<svg xmlns="http://www.w3.org/2000/svg" width="192" height="192" viewBox="0 0 192 192"><defs><radialGradient id="halo"><stop stop-color="#d0a84f" stop-opacity=".34"/><stop offset="1" stop-color="#8b4f36" stop-opacity="0"/></radialGradient><linearGradient id="garb" x2="0" y2="1"><stop stop-color="#68743d"/><stop offset="1" stop-color="#8b4f36"/></linearGradient></defs><g stroke-linejoin="round" stroke-linecap="round"><circle cx="96" cy="91" r="82" fill="url(#halo)"/><path d="M67.4 123Q96 104 124.6 123l18 69H49.4Z" fill="url(#garb)" stroke="#1c1720" stroke-width="6"/><path d="M57 144h78" stroke="#d0a84f" stroke-width="7"/><path d="M64 66Q66 27 98 24q36 3 38 44l-12 36-27 20-28-18Z" fill="#c08a6f" stroke="#21191c" stroke-width="5"/><path d="M68 48Q64 8 94 5q17-2 38 30l-9-5-8 6-15 7Z" fill="#503126" stroke="#211a18" stroke-width="5"/><path d="m78 77 10 3m17 0 10-3" stroke="#252127" stroke-width="3.5"/><path d="M93 95q5 3 10 0" fill="none" stroke="#774c48" stroke-width="3"/></g></svg>