<svg xmlns="http://www.w3.org/2000/svg" width="96" height="96" viewBox="0 0 96 96"><defs><linearGradient id="cloth" x2="0" y2="1"><stop stop-color="#68743d"/><stop offset="1" stop-color="#8b4f36"/></linearGradient></defs><g stroke-linecap="round" stroke-linejoin="round"><ellipse cx="48" cy="91" rx="17" ry="3.5" fill="#080a0d" opacity=".48"/><g transform="translate(0 0) rotate(0 48 72)"><path d="M42 69l-2 17h9l-1-17M55 69l2 17h-9l1-17" fill="#39342f" stroke="#211d21" stroke-width="2"/><path d="M35 39Q48 32 61 39L66 70Q48 77 30 70Z" fill="#68743d" stroke="#211920" stroke-width="2.5"/><path d="M38 48Q48 57 58 48L61 65Q48 70 35 65Z" fill="#8b4f36" opacity=".72"/><path d="M33 63H63" stroke="#d0a84f" stroke-width="4"/><path d="M37 47  25 67" stroke="#68743d" stroke-width="10"/><circle cx="25" cy="68" r="5" fill="#c08a6f"/><path d="M59 47 72 67" stroke="#68743d" stroke-width="10"/><circle cx="72" cy="68" r="5" fill="#c08a6f"/><path d="M37 26q10-9 23 0v15H37Z" fill="#503126"/><path d="M34 24Q32 8 47 5q17-2 19 15l-9-5-8 6-15 7Z" fill="#503126" stroke="#211a18" stroke-width="2.5"/><g id="profession-tool" transform="translate(70 58)"><circle cy="-9" r="5" fill="#d6aa7b" stroke="#2a2020" stroke-width="1.5"/><path d="m-7-3 7-4 7 4-2 13H-5Z" fill="#9c5961" stroke="#2a2020" stroke-width="1.5"/><path d="M-4 10-7 17M4 10l7 7" stroke="#6c4b38" stroke-width="2"/></g></g></g></svg>