<svg xmlns="http://www.w3.org/2000/svg" width="96" height="96" viewBox="0 0 96 96">
<defs><linearGradient id="aa" x2="1" y2="1"><stop stop-color="#d3d0c4"/><stop offset=".45" stop-color="#747f80"/><stop offset="1" stop-color="#31383e"/></linearGradient><linearGradient id="ac" x2="0" y2="1"><stop stop-color="#8e463b"/><stop offset="1" stop-color="#3b2028"/></linearGradient></defs>
<g stroke-linejoin="round" stroke-linecap="round">
 <ellipse cx="48" cy="89" rx="28" ry="4" fill="#080c10" opacity=".5"/>
 <path d="M65 13q17 7 16 25-8-8-18-8Z" fill="#a66b3d" stroke="#271b18" stroke-width="2.5"/><path d="M67 19q18 15 12 35-6-13-18-19Z" fill="#713d2d"/>
 <path d="M32 39 20 74l15 15 13-9 14 9 15-15-13-35Z" fill="url(#ac)" stroke="#111318" stroke-width="3"/>
 <path d="M29 38 18 44l5 16 14-5M67 38l11 6-5 16-14-5" fill="url(#aa)" stroke="#171b20" stroke-width="3"/><path d="m20 44 12-10 11 9-9 13Z" fill="#9aa3a2" stroke="#202529" stroke-width="2"/><path d="m76 44-12-10-11 9 9 13Z" fill="#9aa3a2" stroke="#202529" stroke-width="2"/>
 <path d="M34 39h28l4 29-18 12-18-12Z" fill="url(#aa)" stroke="#161a1e" stroke-width="2.5"/><path d="m38 45 10 7 10-7-3 23-7 6-7-6Z" fill="#4e5b5e"/><path d="M48 39v35M34 59h28" stroke="#b9b99f" stroke-width="2" opacity=".65"/>
 <path d="M37 79 31 94h13l4-13M59 79l6 15H52l-4-13" fill="#343e43" stroke="#12161a" stroke-width="2.5"/>
 <path d="M36 23q0-14 12-17 14 2 14 17l-5 12-9 4-9-5Z" fill="#bd8c70" stroke="#15181d" stroke-width="2.5"/><path d="M35 24Q32 8 47 3q14 0 18 13l-9-5-5 7-7-5-9 12Z" fill="#793f2d" stroke="#211718" stroke-width="2.5"/><path d="M40 25h5m7 0h5" stroke="#252025" stroke-width="1.5"/><path d="m45 32 6 0" stroke="#774d48" stroke-width="1.3"/>
 <path d="M16 46 8 17" stroke="#4b4031" stroke-width="4"/><path d="m8 19 4-12 5 11-5 12Z" fill="#c4cfcc" stroke="#252b2c" stroke-width="2"/><path d="M12 31h11" stroke="#b18b4c" stroke-width="4"/>
 <path d="m72 60 11 12-9 8-11-13Z" fill="#848f8e" stroke="#161a1e" stroke-width="2.5"/><path d="m76 65 8 8" stroke="#d7b36b" stroke-width="2"/>
</g></svg>