<svg xmlns="http://www.w3.org/2000/svg" width="96" height="96" viewBox="0 0 96 96">
<defs><linearGradient id="kc" x2="1" y2="1"><stop stop-color="#34424b"/><stop offset="1" stop-color="#121820"/></linearGradient><linearGradient id="km" x2="0" y2="1"><stop stop-color="#65747a"/><stop offset="1" stop-color="#293137"/></linearGradient><filter id="kg" x="-200%" y="-200%" width="400%" height="400%"><feGaussianBlur stdDeviation="2.2" result="b"/><feMerge><feMergeNode in="b"/><feMergeNode in="SourceGraphic"/></feMerge></filter></defs>
<g stroke-linejoin="round" stroke-linecap="round">
 <ellipse cx="48" cy="89" rx="26" ry="4" fill="#080c10" opacity=".55"/>
 <path d="M61 15 78 80" stroke="#111820" stroke-width="7"/><path d="m63 16 4-7 5 7-3 34" fill="#9aa9aa" stroke="#20292c" stroke-width="2"/><path d="m74 56 9 5-7 7-8-7Z" fill="#80653e" stroke="#191718" stroke-width="2"/>
 <path d="M33 34 23 76l13 12 13-8 15 8 12-12-12-42Z" fill="url(#kc)" stroke="#0a0f14" stroke-width="3"/>
 <path d="M31 39 18 62l9 9 12-21M65 39l13 23-9 9-12-21" fill="#222b33" stroke="#0a0f14" stroke-width="3"/>
 <path d="m30 38 11-8h14l12 8-8 18H38Z" fill="url(#km)" stroke="#11171c" stroke-width="2.5"/>
 <path d="m36 39 12 8 13-8-3 18-10 6-10-6Z" fill="#22272d"/><path d="M46 46h4v16h-4Z" fill="#83b9ae" opacity=".65"/>
 <path d="m34 76 13-9 15 9-4 13H36Z" fill="#171d24" stroke="#090d11" stroke-width="2.5"/><path d="M37 86 32 94h12l4-10M59 86l5 8H52l-4-10" fill="#202831" stroke="#090d11" stroke-width="2.5"/>
 <path d="M36 23q0-14 13-16 14 3 13 16l-5 11-9 4-10-5Z" fill="#a67f68" stroke="#11151a" stroke-width="2.5"/>
 <path d="M35 25q-5-17 10-21 14-3 20 12l-8-3-2 8-8-5-12 12Z" fill="#182028" stroke="#0a0e12" stroke-width="2.5"/><path d="m59 16 7 11-8 8 1-11Z" fill="#151b22"/>
 <path d="m41 25 5 2m8 0 4-2" stroke="#1a1d22" stroke-width="1.6"/><path d="m47 32 5-1" stroke="#6b4f48" stroke-width="1.3"/>
 <path d="m27 64-8 8 8 6 8-10" fill="#9e7964" stroke="#10151a" stroke-width="2.5"/><circle cx="22" cy="73" r="5" fill="#79d8c8" opacity=".9" filter="url(#kg)"/><path d="m18 72 4-6 4 6-4 6Z" fill="#b7fff1"/>
 <path d="M66 55 74 73" stroke="#806645" stroke-width="3"/><path d="m71 69 8 9" stroke="#c5d1cf" stroke-width="3"/>
</g></svg>